# xmcd
#
# Track frame offsets: 
#        150
#        13222
#        25391
#        39090
#        49578
#        56837
#        71208
#        81480
#        90237
#        106850
#        124959
#        135866
#
# Disc length: 1945 seconds
#
# Revision: 0
# Processed by: cddbd v1.5.2PL0 Copyright (c) Steve Scherf et al.
# Submitted via: ExactAudioCopy v1.0b3
#
DISCID=9a07970c
DTITLE=Sascha Kommer - Swingin' Decades (EAC3)
DYEAR=2012
DGENRE=Blues
TTITLE0=Not a Plain Plain
TTITLE1=Black Fantasy
TTITLE2=Stardust - As Times goes by
TTITLE3=St. Louis Blues
TTITLE4=Preludes Op.28 No.1
TTITLE5=Flying and Sighing
TTITLE6=C Unison
TTITLE7=Puttin' on the Ritz - Steppin' out
TTITLE8=The Man I Love
TTITLE9=True Love Boogie
TTITLE10=Dream a Little Dream of Me
TTITLE11=Twist
EXTD=
EXTT0=
EXTT1=
EXTT2=
EXTT3=
EXTT4=
EXTT5=
EXTT6=
EXTT7=
EXTT8=
EXTT9=
EXTT10=
EXTT11=
PLAYORDER=
